<svg id="Layer_1" data-name="Layer 1" xmlns="http://www.w3.org/2000/svg" viewBox="0 0 124.82 101.61"><defs><style>.cls-1{fill:#fff;}</style></defs><path class="cls-1" d="M603,518.41v60.7a1.05,1.05,0,0,0-.17.31c-1.57,7.49-6.72,11.72-14.37,11.73H492.68a17,17,0,0,1-3-.2,13.73,13.73,0,0,1-11.46-13.86q0-28.1,0-56.18c0-8.6,5.86-14.47,14.44-14.49,5,0,9.91,0,14.87,0h1.45v-4.12c0-7.53,5.17-12.73,12.7-12.74q18.95,0,37.9,0a13.2,13.2,0,0,1,3.49.38A12.09,12.09,0,0,1,572.24,502c0,1.41,0,2.82,0,4.37h1.58c5.36,0,10.72-.07,16.08.06a13.63,13.63,0,0,1,12.55,9.86C602.65,517,602.82,517.71,603,518.41Zm-62.38,60.84a30.48,30.48,0,1,0-30.5-30.46A30.57,30.57,0,0,0,540.62,579.25Z" transform="translate(-478.18 -489.54)"/><path class="cls-1" d="M540.62,579.25a30.48,30.48,0,1,1,30.44-30.5A30.59,30.59,0,0,1,540.62,579.25Zm20.09-30.66a20.15,20.15,0,0,0-20.6-19.93c-11,.26-19.92,9.53-19.64,20.29a20.13,20.13,0,0,0,20.73,19.92C552.05,568.6,561,559.31,560.71,548.59Z" transform="translate(-478.18 -489.54)"/><path class="cls-1" d="M560.71,548.59c.28,10.72-8.66,20-19.51,20.28A20.13,20.13,0,0,1,520.47,549c-.28-10.76,8.69-20,19.64-20.29A20.15,20.15,0,0,1,560.71,548.59Z" transform="translate(-478.18 -489.54)"/></svg>